<mxfile host="app.diagrams.net" modified="2024-02-01T04:09:44.829Z" agent="Mozilla/5.0 (X11; Linux x86_64) AppleWebKit/537.36 (KHTML, like Gecko) Chrome/120.0.0.0 Safari/537.36" etag="76M3C3KCsYnayQlm-mib" version="23.1.0" type="github">
  <diagram name="Halaman-1" id="KbThH6a_TNTINnJ5w4zP">
    <mxGraphModel dx="880" dy="494" grid="1" gridSize="10" guides="1" tooltips="1" connect="1" arrows="1" fold="1" page="1" pageScale="1" pageWidth="827" pageHeight="1169" math="0" shadow="0">
      <root>
        <mxCell id="0" />
        <mxCell id="1" parent="0" />
        <mxCell id="2oP1x3iAQpmKH-bp-Emd-5" style="edgeStyle=orthogonalEdgeStyle;rounded=0;orthogonalLoop=1;jettySize=auto;html=1;exitX=0.5;exitY=1;exitDx=0;exitDy=0;entryX=0.5;entryY=0;entryDx=0;entryDy=0;" edge="1" parent="1" source="2oP1x3iAQpmKH-bp-Emd-1" target="2oP1x3iAQpmKH-bp-Emd-3">
          <mxGeometry relative="1" as="geometry" />
        </mxCell>
        <mxCell id="2oP1x3iAQpmKH-bp-Emd-1" value="Start" style="rounded=1;whiteSpace=wrap;html=1;" vertex="1" parent="1">
          <mxGeometry x="220" y="160" width="120" height="60" as="geometry" />
        </mxCell>
        <mxCell id="2oP1x3iAQpmKH-bp-Emd-6" style="edgeStyle=orthogonalEdgeStyle;rounded=0;orthogonalLoop=1;jettySize=auto;html=1;exitX=1;exitY=0.5;exitDx=0;exitDy=0;entryX=0;entryY=0.5;entryDx=0;entryDy=0;" edge="1" parent="1" source="2oP1x3iAQpmKH-bp-Emd-3" target="2oP1x3iAQpmKH-bp-Emd-4">
          <mxGeometry relative="1" as="geometry" />
        </mxCell>
        <mxCell id="2oP1x3iAQpmKH-bp-Emd-27" value="Yes" style="edgeLabel;html=1;align=center;verticalAlign=middle;resizable=0;points=[];" vertex="1" connectable="0" parent="2oP1x3iAQpmKH-bp-Emd-6">
          <mxGeometry x="0.0857" y="-2" relative="1" as="geometry">
            <mxPoint as="offset" />
          </mxGeometry>
        </mxCell>
        <mxCell id="2oP1x3iAQpmKH-bp-Emd-10" style="edgeStyle=orthogonalEdgeStyle;rounded=0;orthogonalLoop=1;jettySize=auto;html=1;exitX=0.5;exitY=1;exitDx=0;exitDy=0;" edge="1" parent="1" source="2oP1x3iAQpmKH-bp-Emd-3" target="2oP1x3iAQpmKH-bp-Emd-9">
          <mxGeometry relative="1" as="geometry" />
        </mxCell>
        <mxCell id="2oP1x3iAQpmKH-bp-Emd-28" value="No" style="edgeLabel;html=1;align=center;verticalAlign=middle;resizable=0;points=[];" vertex="1" connectable="0" parent="2oP1x3iAQpmKH-bp-Emd-10">
          <mxGeometry x="-0.4" y="1" relative="1" as="geometry">
            <mxPoint as="offset" />
          </mxGeometry>
        </mxCell>
        <mxCell id="2oP1x3iAQpmKH-bp-Emd-3" value="Register?" style="rhombus;whiteSpace=wrap;html=1;" vertex="1" parent="1">
          <mxGeometry x="240" y="260" width="80" height="80" as="geometry" />
        </mxCell>
        <mxCell id="2oP1x3iAQpmKH-bp-Emd-4" value="Register" style="rounded=0;whiteSpace=wrap;html=1;" vertex="1" parent="1">
          <mxGeometry x="390" y="270" width="120" height="60" as="geometry" />
        </mxCell>
        <mxCell id="2oP1x3iAQpmKH-bp-Emd-24" value="" style="edgeStyle=orthogonalEdgeStyle;rounded=0;orthogonalLoop=1;jettySize=auto;html=1;entryX=1;entryY=0.5;entryDx=0;entryDy=0;" edge="1" parent="1" source="2oP1x3iAQpmKH-bp-Emd-7" target="2oP1x3iAQpmKH-bp-Emd-23">
          <mxGeometry relative="1" as="geometry">
            <mxPoint x="740" y="630" as="targetPoint" />
            <Array as="points">
              <mxPoint x="830" y="300" />
              <mxPoint x="830" y="630" />
            </Array>
          </mxGeometry>
        </mxCell>
        <mxCell id="2oP1x3iAQpmKH-bp-Emd-7" value="Users" style="shape=cylinder3;whiteSpace=wrap;html=1;boundedLbl=1;backgroundOutline=1;size=15;" vertex="1" parent="1">
          <mxGeometry x="620" y="260" width="60" height="80" as="geometry" />
        </mxCell>
        <mxCell id="2oP1x3iAQpmKH-bp-Emd-8" style="edgeStyle=orthogonalEdgeStyle;rounded=0;orthogonalLoop=1;jettySize=auto;html=1;exitX=1;exitY=0.5;exitDx=0;exitDy=0;entryX=0;entryY=0.5;entryDx=0;entryDy=0;entryPerimeter=0;" edge="1" parent="1" source="2oP1x3iAQpmKH-bp-Emd-4" target="2oP1x3iAQpmKH-bp-Emd-7">
          <mxGeometry relative="1" as="geometry" />
        </mxCell>
        <mxCell id="2oP1x3iAQpmKH-bp-Emd-12" style="edgeStyle=orthogonalEdgeStyle;rounded=0;orthogonalLoop=1;jettySize=auto;html=1;exitX=1;exitY=0.5;exitDx=0;exitDy=0;entryX=0;entryY=0.5;entryDx=0;entryDy=0;" edge="1" parent="1" source="2oP1x3iAQpmKH-bp-Emd-9" target="2oP1x3iAQpmKH-bp-Emd-11">
          <mxGeometry relative="1" as="geometry" />
        </mxCell>
        <mxCell id="2oP1x3iAQpmKH-bp-Emd-9" value="Login" style="rounded=0;whiteSpace=wrap;html=1;" vertex="1" parent="1">
          <mxGeometry x="220" y="390" width="120" height="60" as="geometry" />
        </mxCell>
        <mxCell id="2oP1x3iAQpmKH-bp-Emd-14" value="" style="edgeStyle=orthogonalEdgeStyle;rounded=0;orthogonalLoop=1;jettySize=auto;html=1;" edge="1" parent="1" source="2oP1x3iAQpmKH-bp-Emd-11" target="2oP1x3iAQpmKH-bp-Emd-13">
          <mxGeometry relative="1" as="geometry" />
        </mxCell>
        <mxCell id="2oP1x3iAQpmKH-bp-Emd-29" value="Yes" style="edgeLabel;html=1;align=center;verticalAlign=middle;resizable=0;points=[];" vertex="1" connectable="0" parent="2oP1x3iAQpmKH-bp-Emd-14">
          <mxGeometry x="-0.44" y="2" relative="1" as="geometry">
            <mxPoint as="offset" />
          </mxGeometry>
        </mxCell>
        <mxCell id="2oP1x3iAQpmKH-bp-Emd-17" style="edgeStyle=orthogonalEdgeStyle;rounded=0;orthogonalLoop=1;jettySize=auto;html=1;exitX=0.5;exitY=1;exitDx=0;exitDy=0;entryX=0.5;entryY=0;entryDx=0;entryDy=0;" edge="1" parent="1" source="2oP1x3iAQpmKH-bp-Emd-11" target="2oP1x3iAQpmKH-bp-Emd-16">
          <mxGeometry relative="1" as="geometry">
            <Array as="points">
              <mxPoint x="495" y="480" />
              <mxPoint x="415" y="480" />
            </Array>
          </mxGeometry>
        </mxCell>
        <mxCell id="2oP1x3iAQpmKH-bp-Emd-30" value="No" style="edgeLabel;html=1;align=center;verticalAlign=middle;resizable=0;points=[];" vertex="1" connectable="0" parent="2oP1x3iAQpmKH-bp-Emd-17">
          <mxGeometry x="-0.0609" relative="1" as="geometry">
            <mxPoint as="offset" />
          </mxGeometry>
        </mxCell>
        <mxCell id="2oP1x3iAQpmKH-bp-Emd-11" value="Forgot password?" style="rhombus;whiteSpace=wrap;html=1;" vertex="1" parent="1">
          <mxGeometry x="450" y="375" width="90" height="90" as="geometry" />
        </mxCell>
        <mxCell id="2oP1x3iAQpmKH-bp-Emd-15" style="edgeStyle=orthogonalEdgeStyle;rounded=0;orthogonalLoop=1;jettySize=auto;html=1;exitX=0.5;exitY=0;exitDx=0;exitDy=0;" edge="1" parent="1" source="2oP1x3iAQpmKH-bp-Emd-13" target="2oP1x3iAQpmKH-bp-Emd-7">
          <mxGeometry relative="1" as="geometry" />
        </mxCell>
        <mxCell id="2oP1x3iAQpmKH-bp-Emd-13" value="Request new password" style="whiteSpace=wrap;html=1;" vertex="1" parent="1">
          <mxGeometry x="590" y="390" width="120" height="60" as="geometry" />
        </mxCell>
        <mxCell id="2oP1x3iAQpmKH-bp-Emd-18" style="edgeStyle=orthogonalEdgeStyle;rounded=0;orthogonalLoop=1;jettySize=auto;html=1;entryX=0.5;entryY=1;entryDx=0;entryDy=0;" edge="1" parent="1" source="2oP1x3iAQpmKH-bp-Emd-16" target="2oP1x3iAQpmKH-bp-Emd-9">
          <mxGeometry relative="1" as="geometry" />
        </mxCell>
        <mxCell id="2oP1x3iAQpmKH-bp-Emd-31" value="No" style="edgeLabel;html=1;align=center;verticalAlign=middle;resizable=0;points=[];" vertex="1" connectable="0" parent="2oP1x3iAQpmKH-bp-Emd-18">
          <mxGeometry x="-0.3405" relative="1" as="geometry">
            <mxPoint as="offset" />
          </mxGeometry>
        </mxCell>
        <mxCell id="2oP1x3iAQpmKH-bp-Emd-20" style="edgeStyle=orthogonalEdgeStyle;rounded=0;orthogonalLoop=1;jettySize=auto;html=1;exitX=0.5;exitY=1;exitDx=0;exitDy=0;entryX=1;entryY=0.5;entryDx=0;entryDy=0;" edge="1" parent="1" source="2oP1x3iAQpmKH-bp-Emd-16" target="2oP1x3iAQpmKH-bp-Emd-19">
          <mxGeometry relative="1" as="geometry" />
        </mxCell>
        <mxCell id="2oP1x3iAQpmKH-bp-Emd-32" value="Yes" style="edgeLabel;html=1;align=center;verticalAlign=middle;resizable=0;points=[];" vertex="1" connectable="0" parent="2oP1x3iAQpmKH-bp-Emd-20">
          <mxGeometry x="-0.7217" y="3" relative="1" as="geometry">
            <mxPoint as="offset" />
          </mxGeometry>
        </mxCell>
        <mxCell id="2oP1x3iAQpmKH-bp-Emd-16" value="correct password?" style="rhombus;whiteSpace=wrap;html=1;" vertex="1" parent="1">
          <mxGeometry x="370" y="500" width="90" height="90" as="geometry" />
        </mxCell>
        <mxCell id="2oP1x3iAQpmKH-bp-Emd-19" value="Finish" style="rounded=1;whiteSpace=wrap;html=1;" vertex="1" parent="1">
          <mxGeometry x="220" y="600" width="120" height="60" as="geometry" />
        </mxCell>
        <mxCell id="2oP1x3iAQpmKH-bp-Emd-25" style="edgeStyle=orthogonalEdgeStyle;rounded=0;orthogonalLoop=1;jettySize=auto;html=1;exitX=0;exitY=0.5;exitDx=0;exitDy=0;entryX=1;entryY=0.5;entryDx=0;entryDy=0;" edge="1" parent="1" source="2oP1x3iAQpmKH-bp-Emd-23" target="2oP1x3iAQpmKH-bp-Emd-19">
          <mxGeometry relative="1" as="geometry" />
        </mxCell>
        <mxCell id="2oP1x3iAQpmKH-bp-Emd-23" value="New password" style="whiteSpace=wrap;html=1;" vertex="1" parent="1">
          <mxGeometry x="590" y="600" width="120" height="60" as="geometry" />
        </mxCell>
      </root>
    </mxGraphModel>
  </diagram>
</mxfile>
